<svg id="Capa_1" enable-background="new 0 0 512 512" height="512" viewBox="0 0 512 512" width="512" xmlns="http://www.w3.org/2000/svg"><g><path d="m480.24 241c-7.443-112.092-97.148-201.797-209.24-209.24v-31.76h-30v31.76c-112.092 7.443-201.797 97.148-209.24 209.24h-31.76v30h31.76c7.443 112.092 97.148 201.797 209.24 209.24v31.76h30v-31.87c28.618-1.979 56.18-9.207 81.744-21.449l-22.808-22.808c-18.734 7.716-38.496 12.638-58.936 14.333v-29.206h-30v29.24c-95.548-7.328-171.912-83.692-179.24-179.24h29.24v-30h-29.24c7.328-95.548 83.692-171.912 179.24-179.24v29.24h30v-29.24c95.548 7.328 171.912 83.692 179.24 179.24h-29.24v30h29.205c-1.696 20.435-6.612 40.192-14.324 58.922l22.808 22.811c12.237-25.56 19.462-53.121 21.442-81.733h31.869v-30z"/><path d="m336.25 399.754 112.234 112.246 63.516-63.516-112.257-112.267c-17.322 30.617-37.462 48.761-63.493 63.537z"/><circle cx="256" cy="256" r="135"/></g></svg>