<svg id="Capa_1" enable-background="new 0 0 512 512" height="512" viewBox="0 0 512 512" width="512" xmlns="http://www.w3.org/2000/svg"><g><path d="m121 226v30h-30v30h30v30h-30v30h30v30h-30v30h90v-210h-90v30z"/><path d="m271 376h30v30h-30z"/><path d="m512 106v-90h-61v60h-30v-60h-30v60h-30v-60h-30v60h-30v-60h-301v90z"/><path d="m271 217.211v128.789h30v-128.789l-15-15z"/><path d="m405.264 285.925c-.038-.002-.071-.011-.11-.011-2.933 2.146-14.154 22.952-14.154 60.086 0 37.266 11.309 58.11 15.806 60.132 2.885-2.022 14.194-22.866 14.194-60.132 0-37.103-11.201-57.898-15.736-60.075z"/><path d="m406 256c8.276 0 15-6.724 15-15 0-6.726-3.239-8.549-15-30.015-11.76 21.465-15 23.277-15 30.015 0 8.276 6.724 15 15 15z"/><path d="m0 136v360h512v-360zm211 300h-150v-270h150zm120 0h-90v-231.211l45-45 45 45zm120-90c0 43.345-14.077 90-45 90s-45-46.655-45-90c0-26.115 5.22-53.254 16.044-70.844-9.727-8.261-16.044-20.423-16.044-34.156 0-20.313 11.352-28.582 45-89.985 35.438 64.669 45 69.82 45 89.985 0 13.733-6.317 25.895-16.044 34.156 10.824 17.59 16.044 44.729 16.044 70.844z"/></g></svg>