<svg id="Capa_1" enable-background="new 0 0 512 512" height="512" viewBox="0 0 512 512" width="512" xmlns="http://www.w3.org/2000/svg"><g><path d="m271 123.8v-30.899h60v-92.901h-150v92.901h60v30.899c4.799-.599 9.901-.899 15-.899s10.201.3 15 .899z"/><path d="m107.555 148.153 21.165-21.165-21.211-21.211-63.633 63.633 21.211 21.211 21.167-21.167 21.846 21.846c6.301-7.5 13.5-14.7 21.301-21.299z"/><path d="m425.746 169.454 21.167 21.167 21.211-21.211-63.633-63.633-21.211 21.211 21.167 21.165-21.848 21.848c7.8 6.599 15 13.799 21.301 21.299z"/><path d="m256 272.901c-24.814 0-45 20.186-45 45s20.186 45 45 45 45-20.186 45-45-20.186-45-45-45zm15 60h-30v-30h30z"/><path d="m450.099 302.901c-3.299-42.601-20.099-81-46.199-111.601l-41.7 41.7-21.299-21.3 41.699-41.699c-30.298-26.4-69-43.2-111.599-46.201v59.101h-30v-59.101c-42.599 3.001-81.301 19.801-111.599 46.201l41.699 41.699-21.3 21.3-41.7-41.7c-26.1 30.601-42.9 69-46.199 111.601h59.098v30h-59.099c2.999 42.599 20.099 81.299 46.199 111.599l41.7-41.7 21.299 21.301-41.699 41.7c30.298 26.1 69 43.2 111.599 46.199v-59.099h30v59.099c42.599-2.999 81.301-20.099 111.599-46.199l-41.699-41.7 21.299-21.301 41.7 41.7c26.1-30.3 43.2-69 46.199-111.599h-59.097v-30zm-119.099 15c0 8.399-1.8 16.199-4.2 23.699l27.601 15.901-15 25.8-27.601-15.901c-10.499 12.001-24.6 20.7-40.8 24.001v31.5h-30v-31.5c-16.199-3.301-30.3-12.001-40.8-24.001l-27.601 15.901-15-25.8 27.601-15.901c-2.401-7.5-4.2-15.3-4.2-23.699 0-8.401 1.8-16.201 4.2-23.701l-27.601-15.899 15-25.8 27.601 15.899c10.499-11.999 24.6-20.7 40.8-24v-31.5h30v31.5c16.199 3.3 30.3 12.001 40.8 24l27.601-15.899 15 25.8-27.601 15.899c2.4 7.5 4.2 15.3 4.2 23.701z"/></g></svg>