<svg id="Capa_1" enable-background="new 0 0 512 512" height="512" viewBox="0 0 512 512" width="512" xmlns="http://www.w3.org/2000/svg"><g><path d="m511 133.484c0-69.307-52.685-125.911-120-133.484v58.484h30v30h-45c-8.276 0-15 6.724-15 15s6.724 15 15 15c24.814 0 45 20.186 45 45 0 19.53-12.578 36.024-30 42.237v61.247c10.463-1.177 20.387-3.906 30-7.315v42.347h-90v-42.347c9.613 3.409 19.537 6.138 30 7.315v-58.484h-30v-30h45c8.276 0 15-6.724 15-15s-6.724-15-15-15c-24.814 0-45-20.186-45-45 0-19.53 12.578-36.024 30-42.237v-61.247c-67.315 7.573-120 64.177-120 133.484 0 46.523 24.031 86.913 60 111v267.516h30v-60h90v60h30v-267.516c35.969-24.087 60-64.477 60-111zm-90 198.516v30h-90v-30zm-90 90v-30h90v30z"/><path d="m241 332h-60v-30h-30v210h30v-30h60v30h30v-210h-30zm0 30v30h-60v-30zm-60 90v-30h60v30z"/><path d="m91 392h-60v-30h-30v150h30v-30h60v30h30v-150h-30zm-60 60v-30h60v30z"/></g></svg>